<?xml version="1.0" encoding="utf-8"?>
<!-- Generator: Adobe Illustrator 17.0.0, SVG Export Plug-In . SVG Version: 6.00 Build 0)  -->
<!DOCTYPE svg PUBLIC "-//W3C//DTD SVG 1.1//EN" "http://www.w3.org/Graphics/SVG/1.1/DTD/svg11.dtd">
<svg version="1.1" id="honeysuckle" xmlns="http://www.w3.org/2000/svg" xmlns:xlink="http://www.w3.org/1999/xlink" x="0px"
	 y="0px" width="273.548px" height="235.484px" viewBox="0 0 273.548 235.484" enable-background="new 0 0 273.548 235.484"
	 xml:space="preserve">
<g id="buds">
	
		<ellipse transform="matrix(-0.3234 -0.9463 0.9463 -0.3234 71.8242 155.7929)" fill="none" stroke="#000000" stroke-miterlimit="10" cx="91.613" cy="52.217" rx="10.968" ry="6.74"/>
	
		<ellipse transform="matrix(-0.6736 -0.7391 0.7391 -0.6736 22.666 149.3645)" fill="none" stroke="#000000" stroke-miterlimit="10" cx="44.314" cy="69.677" rx="10.968" ry="6.74"/>
	
		<ellipse transform="matrix(0.3942 -0.919 0.919 0.3942 52.7283 148.3752)" fill="none" stroke="#000000" stroke-miterlimit="10" cx="138.906" cy="34.194" rx="10.968" ry="6.74"/>
</g>
<g id="flower">
	<path fill="none" stroke="#000000" stroke-miterlimit="10" d="M145.139,187.664l-11.199-6.587l-55.254-24.411l-60.625,20.652
		l25.555-24.864l22.171-5.869l24.1,4.575l26.452,12.258l13.965,4.245l-2.374-11.278l-24.95-23.67l-43.555-10.051l17.633-5.758
		l30.883,5.202l16.87,12.328l16.625,13.545l0.03-10.085l11.653-32.372l0.088-0.082l21.705-20.349l-3.509,22.25l-16.702,29.55
		l0.586,10.551l32.304-23.437l48.783,2.602l23.375,28.188l-21.879-9.175l-28.83-8.326l-31.999,10.24l-15.778,15.777l7.169,13.035
		L145.139,187.664z M78.733,155.593l0.179,0.079l55.484,24.516l10.788,6.342l21.867-10.621l-7.024-12.771l16.48-16.48l0.116-0.037
		l32.403-10.369l0.146,0.042l29.031,8.387l18.177,7.619l-20.495-24.715l-47.992-2.56l-33.501,24.305l-0.705-12.674l16.802-29.726
		l2.987-19.119l-19.497,18.278l-11.542,32.063v11.933L124.2,135.226l-16.658-12.172l-30.407-5.122l-13.98,4.565l40.316,9.304
		l0.099,0.094l25.274,23.979l2.787,13.238l-15.648-4.762l-26.46-12.257l-23.699-4.484l-21.699,5.744l-22.187,21.587L78.733,155.593z
		"/>
	<polyline fill="none" stroke="#000000" stroke-miterlimit="10" points="51.613,72.258 85.161,90.968 118.71,114.194 
		134.839,136.378 138.906,142.581 137.217,133.349 135.484,123.871 130.323,101.935 125.161,67.097 134.839,41.29 	"/>
	<polyline fill="none" stroke="#000000" stroke-miterlimit="10" points="91.613,54.839 107.097,81.29 110.968,94.839 
		118.71,103.871 134.839,136.378 	"/>
</g>
</svg>
