<?xml version="1.0" encoding="utf-8"?>
<!-- Generator: Adobe Illustrator 17.0.0, SVG Export Plug-In . SVG Version: 6.00 Build 0)  -->
<!DOCTYPE svg PUBLIC "-//W3C//DTD SVG 1.1//EN" "http://www.w3.org/Graphics/SVG/1.1/DTD/svg11.dtd">
<svg version="1.1" id="Layer_1" xmlns="http://www.w3.org/2000/svg" xmlns:xlink="http://www.w3.org/1999/xlink" x="0px" y="0px"
	 width="346px" height="356px" viewBox="0 0 346 356" enable-background="new 0 0 346 356" xml:space="preserve">
<g>
	<g>
		<path d="M301.945,203.57c-1.699,6.478-3.06,13.067-5.151,19.415c-16.094,48.845-49.218,78.483-99.909,88.207
			c-1.495,0.287-2.879,1.155-4.315,1.753c-10.417,0-20.833,0-31.25,0c-6.478-1.699-13.067-3.06-19.415-5.151
			C93.06,291.7,63.422,258.576,53.698,207.885c-0.287-1.495-1.155-2.879-1.753-4.315c0-10.417,0-20.833,0-31.25
			c1.699-6.478,3.06-13.067,5.151-19.415c16.094-48.845,49.218-78.483,99.909-88.207c1.495-0.287,2.879-1.155,4.315-1.753
			c10.417,0,20.833,0,31.25,0c6.478,1.699,13.067,3.06,19.415,5.151c48.845,16.094,78.483,49.218,88.207,99.909
			c0.287,1.495,1.155,2.879,1.753,4.315C301.945,182.737,301.945,193.153,301.945,203.57z M297.853,188.709
			c0.533-66.102-53.25-120.787-119.656-121.661c-66.393-0.874-121.622,53.439-122.16,120.134
			c-0.533,66.102,53.25,120.787,119.656,121.661C242.086,309.717,297.315,255.404,297.853,188.709z"/>
		<path d="M255.25,197.834c-6.53,11.835-14.328,25.967-22.238,40.302c15.311,6.856,24.756,18.258,24.535,37.192
			c-15.81,0.389-26.492-6.812-35.058-19.159c-8.634,12.018-19.396,19.473-35.392,19.238c-0.529-18.844,9.89-29.946,23.85-37.422
			c-6.933-13.623-13.654-26.834-20.383-40.04c-0.43-0.844-0.991-2.406-1.379-2.371c-12.934,1.145-8.894-9.679-8.24-14.395
			c3.284-23.682,6.281-47.672,12.993-70.49c3.106-10.56,13.825-19.351,22.454-27.504c2.327-2.199,11.448-0.992,14.336,1.835
			c13.017,12.74,24.076,26.702,25.781,46.384c1.311,15.138,5.36,30.02,7.508,45.113c0.711,4.993-0.216,10.408-1.406,15.388
			C262.155,193.809,258.872,195.04,255.25,197.834z M191.576,136.161c-8.784,41.411,3.268,75.138,30.732,105.14
			c28.168-30.53,39.06-64.776,30.661-105.344C232.546,145.032,212.642,144.798,191.576,136.161z M240.304,102.347
			c-3.631-4.402-7.113-9.124-11.157-13.304c-1.865-1.927-4.8-3.867-7.297-3.931c-6.617-0.171-17.058,15.826-15.392,22.669
			c1.463,6.01-0.714,9.745-6.719,11.968c-2.655,0.983-5.991,3.642-6.449,6.033c-0.442,2.307,1.785,6.764,3.936,7.668
			c16.568,6.966,33.489,7.038,50.061,0.02c2.103-0.891,3.568-5.035,3.864-7.827c0.196-1.851-1.76-5.028-3.543-5.812
			C236.116,114.781,235.502,113.707,240.304,102.347z M191.77,270.238c12.033-0.638,12.033-0.638,30.466-21.145
			c20.026,21.144,20.026,21.144,30.503,20.636c-2.958-20.038-18.221-31.908-27.998-25.571c-7.017,0-11.948-1.404-15.395,0.262
			C198.89,249.476,192.549,258.01,191.77,270.238z"/>
		<path d="M131.484,119.835c8.771-11.989,19.282-19.826,34.298-19.319c2.708,14.789-5.492,27.791-22.808,37.279
			c6.907,13.768,11.578,29.546,21.591,40.395c5.249,5.688,9.03,9.541,8.721,16.756c-0.319,7.439-0.749,14.958-2.144,22.249
			c-2.796,14.613-4.383,29.892-10.057,43.388c-4.95,11.774-14.257,21.965-22.761,31.893c-4.404,5.142-10.978,3.461-15.557-1.448
			c-12.452-13.349-23.715-27.056-25.421-46.712c-1.314-15.139-5.298-30.029-7.489-45.118c-0.68-4.681,0.078-9.791,1.268-14.424
			c0.548-2.135,3.722-3.596,7.752-7.185c6.254-11.317,13.911-25.175,21.905-39.641c-14.881-7.021-24.904-18.339-24.362-37.473
			C112.242,100.271,122.969,107.456,131.484,119.835z M131.611,134.483c-28.151,30.657-39.123,64.882-30.982,103.84
			c10.871-1.897,21.022-5.051,31.172-5.052c10.127-0.001,20.253,3.159,30.821,5.01C171.104,198.624,159.114,165.012,131.611,134.483
			z M113.339,273.169c3.965,4.842,7.453,9.108,10.948,13.369c4.77,5.817,9.616,6.025,14.486,0.141
			c3.715-4.489,7.388-9.014,10.967-13.386c-4.876-11.304-4.037-12.992,6.772-17.201c1.885-0.734,4.238-3.588,4.139-5.337
			c-0.158-2.817-1.473-7.136-3.52-8.033c-16.822-7.371-34.026-7.387-50.881-0.11c-2.025,0.874-3.298,5.201-3.476,8.019
			c-0.112,1.778,2.067,4.706,3.891,5.435C117.472,260.385,118.46,262.422,113.339,273.169z M101.515,105.752
			c1.298,19.285,17.451,32.09,30.911,25.668c4.643,0.77,9.832,1.591,13.375-0.447c9.523-5.48,15.969-13.587,16.185-25.753
			c-15.649,0.558-23.073,11.308-30.058,22.553C115.259,107.22,114.075,106.377,101.515,105.752z"/>
		<path d="M222.556,221.603c-17.069-16.302-17.115-59.743-0.546-76.394C238.841,159.164,239.43,203.285,222.556,221.603z
			 M222.645,150.993c-12.039,16.418-11.541,52.411,0.379,63.768C233.274,197.802,233.262,168.801,222.645,150.993z"/>
		<path d="M131.642,230.726c-16.724-15.028-17.048-58.955-0.56-76.044C148.407,167.636,148.753,214.55,131.642,230.726z
			 M130.582,225.809c12.704-17.349,12.195-53.364-0.515-65.437C121.055,182.188,120.726,203.252,130.582,225.809z"/>
	</g>
</g>
</svg>
