<?xml version="1.0" encoding="utf-8"?>
<!-- Generator: Adobe Illustrator 17.0.0, SVG Export Plug-In . SVG Version: 6.00 Build 0)  -->
<!DOCTYPE svg PUBLIC "-//W3C//DTD SVG 1.1//EN" "http://www.w3.org/Graphics/SVG/1.1/DTD/svg11.dtd">
<svg version="1.1" id="Layer_1" xmlns="http://www.w3.org/2000/svg" xmlns:xlink="http://www.w3.org/1999/xlink" x="0px" y="0px"
	 width="500px" height="560px" viewBox="0 0 500 560" enable-background="new 0 0 500 560" xml:space="preserve">
<g>
	<g>
		<path fill="#FFFFFF" d="M96.383,249.82c0-44.479,0-88.958,0-133.438c44.479,0,88.958,0,133.438,0
			c-1.752,0.729-3.44,1.788-5.264,2.138c-61.843,11.864-102.254,48.022-121.888,107.613
			C100.116,233.879,98.456,241.918,96.383,249.82z"/>
		<path fill="#FFFFFF" d="M267.945,116.383c44.479,0,88.958,0,133.438,0c0,44.479,0,88.958,0,133.438
			c-0.729-1.752-1.788-3.44-2.138-5.264c-11.863-61.843-48.022-102.254-107.613-121.889
			C283.887,120.116,275.848,118.456,267.945,116.383z"/>
		<path fill="#FFFFFF" d="M229.82,421.383c-44.479,0-88.958,0-133.438,0c0-44.479,0-88.958,0-133.438
			c0.729,1.752,1.788,3.44,2.138,5.264c11.864,61.843,48.022,102.254,107.613,121.889C213.879,417.65,221.918,419.31,229.82,421.383
			z"/>
		<path fill="#FFFFFF" d="M401.383,287.945c0,44.479,0,88.958,0,133.438c-44.479,0-88.958,0-133.438,0
			c1.752-0.729,3.44-1.788,5.264-2.138c61.843-11.863,102.254-48.022,121.889-107.613
			C397.65,303.887,399.31,295.848,401.383,287.945z"/>
		<path d="M401.383,287.945c-2.073,7.903-3.733,15.942-6.285,23.687c-19.634,59.591-60.046,95.749-121.889,107.613
			c-1.824,0.35-3.513,1.41-5.264,2.138c-12.708,0-25.417,0-38.125,0c-7.903-2.073-15.942-3.733-23.687-6.285
			c-59.591-19.634-95.749-60.046-107.613-121.889c-0.35-1.824-1.41-3.513-2.138-5.264c0-12.708,0-25.417,0-38.125
			c2.073-7.903,3.733-15.942,6.285-23.687c19.634-59.591,60.046-95.749,121.888-107.613c1.824-0.35,3.513-1.41,5.264-2.138
			c12.708,0,25.417,0,38.125,0c7.903,2.073,15.942,3.733,23.687,6.285c59.591,19.634,95.749,60.046,107.613,121.889
			c0.35,1.824,1.41,3.513,2.138,5.264C401.383,262.529,401.383,275.237,401.383,287.945z M396.39,269.182
			c0.214-80.734-65.695-147.18-146.612-147.807c-81.1-0.628-148.187,65.919-148.402,147.208
			c-0.214,80.734,65.695,147.18,146.612,147.807C329.088,417.018,396.175,350.471,396.39,269.182z"/>
		<path fill="#FFFFFF" d="M396.39,269.182c-0.215,81.289-67.303,147.836-148.402,147.208
			c-80.917-0.626-146.826-67.073-146.612-147.807c0.215-81.289,67.303-147.836,148.402-147.208
			C330.695,122.002,396.604,188.448,396.39,269.182z M340.345,247.736c5.207,7.577,3.821,12.037-3.55,16.891
			c-19.405,12.776-30.399,32.145-37.091,53.715c-5.207,16.782,2.096,34.86,14.986,41.538c11.963,6.197,25.557,1.578,38.353-13.102
			c1.556-1.786,2.915-3.753,4.276-5.699c21.199-30.312,29.097-64.21,24.516-100.479c-3.416-27.041-13.625-52.249-41.885-61.321
			c-28.711-9.216-56.606-5.347-78.752,18.349c-11.335,12.128-13.361,12.192-24.617-0.018c-20.198-21.91-45.667-26.049-73.063-20.086
			c-27.024,5.882-39.233,26.719-45.318,51.387c-6.733,27.295-5.076,54.807,6.16,80.456c6.86,15.659,15.892,31.331,27.445,43.741
			c16.835,18.083,41.781,9.427,46.57-14.756c1.274-6.431,1.539-13.855-0.393-19.985c-6.79-21.543-17.606-40.965-37.012-53.741
			c-7.373-4.854-8.754-9.315-3.966-16.287c14.759,7.704,23.353,25.741,42.872,25.75c1.164,0.001,2.893,2.646,3.398,4.346
			c3.448,11.609,6.319,23.398,10.024,34.92c2.48,7.713,4.359,16.576,9.465,22.274c8.82,9.843,20.323,17.691,34.769,11.926
			c14.723-5.875,25.701-15.511,27.008-32.93c0.503-6.699,1.442-13.45,3.045-19.964c2.627-10.673,5.241-21.199,19.605-22.668
			c4.939-0.505,9.742-4.882,14.075-8.187C327.852,258.782,333.976,253.151,340.345,247.736z"/>
		<path d="M340.345,247.736c-6.369,5.415-12.493,11.046-19.08,16.07c-4.333,3.305-9.136,7.683-14.075,8.187
			c-14.364,1.468-16.978,11.995-19.605,22.668c-1.604,6.515-2.543,13.265-3.045,19.964c-1.306,17.419-12.285,27.055-27.008,32.93
			c-14.446,5.764-25.949-2.084-34.769-11.926c-5.106-5.698-6.985-14.561-9.465-22.274c-3.705-11.522-6.576-23.311-10.024-34.92
			c-0.505-1.7-2.234-4.345-3.398-4.346c-19.519-0.009-28.112-18.046-42.872-25.75c-4.789,6.972-3.408,11.433,3.966,16.287
			c19.406,12.776,30.221,32.197,37.012,53.741c1.932,6.13,1.666,13.553,0.393,19.985c-4.789,24.183-29.735,32.839-46.57,14.756
			c-11.554-12.41-20.585-28.082-27.445-43.741c-11.236-25.649-12.893-53.16-6.16-80.456c6.085-24.668,18.295-45.506,45.318-51.387
			c27.396-5.963,52.864-1.824,73.063,20.086c11.256,12.21,13.282,12.147,24.617,0.018c22.146-23.697,50.04-27.566,78.752-18.349
			c28.26,9.072,38.47,34.28,41.885,61.321c4.581,36.27-3.317,70.168-24.516,100.479c-1.361,1.946-2.719,3.913-4.276,5.699
			c-12.796,14.681-26.39,19.3-38.353,13.102c-12.89-6.678-20.193-24.756-14.986-41.538c6.692-21.57,17.686-40.939,37.091-53.715
			C344.167,259.773,345.552,255.314,340.345,247.736z M181.761,354.91c-1.699-2.351-2.404-3.823-3.531-4.813
			c-28.376-24.91-32.891-57.556-29.352-92.419c2.892-28.481,24.299-39.996,47.961-26.537c16.459,9.362,37.184,0.002,40.73-18.621
			c0.446-2.342-0.265-5.524-1.626-7.499c-21.521-31.233-80.458-34.509-101.163-2.083c-12.319,19.294-16.021,40.307-14.715,62.537
			c1.819,30.948,11.165,59.107,32.701,82.189C160.114,355.541,168.932,360.234,181.761,354.91z M318.54,356.076
			c14.775,3.45,23.35-3.402,29.871-11.971c28.518-37.47,38.126-79.316,22.762-124.333c-14.029-41.107-65.492-53.707-98.906-25.776
			c-16.686,13.947-14.263,30.367,5.824,39.789c7.785,3.652,14.447,2.897,22.118-1.886c21.818-13.602,40.432-5.87,47.401,18.988
			c1.267,4.518,1.394,9.38,1.829,14.104C352.583,299.112,342.717,329.108,318.54,356.076z M166.844,241.088
			c17.084,6.883,31.151,12.577,45.24,18.217c9.303,3.724,13.082,10.656,12.913,20.519c-0.177,10.313-0.085,20.662,0.578,30.951
			c0.942,14.627,6.663,21.049,20.222,23.376c-0.727-2.066-1.172-3.939-2.015-5.612c-2.999-5.956-6.133-11.844-9.216-17.757
			c6.738-0.796,13.46-1.914,20.22-2.233c2.771-0.131,7.775,1.082,8.002,2.354c0.519,2.908-0.716,6.546-2.266,9.312
			c-2.629,4.69-6.051,8.935-9.14,13.368c14.843-1.703,20.176-10.641,20.822-22.804c0.568-10.696-0.095-21.482,0.911-32.121
			c0.488-5.158,2.102-12.404,5.724-14.655c10.555-6.561,22.222-11.46,33.778-16.224c4.963-2.046,10.726-2.151,16.126-3.137
			c-0.106-1.177-0.213-2.354-0.319-3.531c-9.688,0-19.476-0.885-29.044,0.185c-19.82,2.216-33.614-4.871-42.692-22.654
			c-1.5-2.938-5.154-6.613-7.808-6.609c-2.665,0.004-6.31,3.67-7.824,6.608c-9.104,17.674-23.034,24.818-42.753,22.631
			C188.737,240.211,178.955,241.088,166.844,241.088z M346.712,268.675c-22.759,7.574-43.958,40.857-43.217,61.826
			c0.313,8.853,2.427,16.873,11.643,22.41c4.282-5.841,8.629-10.972,12.019-16.672c2.266-3.811,5.651-9.653,4.259-12.48
			c-6.499-13.2,0.487-22.386,6.703-32.726C342.169,284.293,343.927,276.175,346.712,268.675z M154.776,267.43
			c-1.372,0.576-2.743,1.151-4.115,1.727c3.308,7.839,5.809,16.158,10.121,23.398c5.833,9.794,11.653,18.94,5.828,30.839
			c-0.766,1.565-0.102,4.717,1.077,6.196c5.74,7.198,11.88,14.077,18.151,21.386C202.815,327.969,185.068,283.071,154.776,267.43z
			 M200.528,268.073c-1.583-13.846-3.877-15.097-29.369-16.519C179.705,259.855,186.206,269.522,200.528,268.073z M297.43,266.956
			c0.931,1.258,1.862,2.517,2.792,3.775c8.871-5.653,17.742-11.305,26.613-16.958C300.775,253.15,298.71,254.286,297.43,266.956z
			 M210.006,275.309c3.258,13.251,6.272,25.505,9.841,40.021c0-14.144,0-26.022,0-38.226
			C216.062,276.413,212.725,275.805,210.006,275.309z M277.884,315.315c3.67-14.795,6.769-27.29,9.93-40.032
			c-2.816,0.529-6.155,1.156-9.93,1.865C277.884,289.324,277.884,301.106,277.884,315.315z"/>
		<path fill="#FFFFFF" d="M181.761,354.91c-12.829,5.324-21.648,0.631-28.995-7.244c-21.535-23.082-30.882-51.241-32.701-82.189
			c-1.306-22.23,2.395-43.244,14.715-62.537c20.705-32.427,79.642-29.151,101.163,2.083c1.361,1.975,2.072,5.157,1.626,7.499
			c-3.546,18.623-24.271,27.983-40.73,18.621c-23.662-13.459-45.069-1.945-47.961,26.537c-3.54,34.863,0.976,67.509,29.352,92.419
			C179.358,351.087,180.062,352.559,181.761,354.91z"/>
		<path fill="#FFFFFF" d="M318.54,356.076c24.176-26.968,34.042-56.964,30.899-91.084c-0.435-4.724-0.563-9.586-1.829-14.104
			c-6.969-24.858-25.583-32.59-47.401-18.988c-7.671,4.782-14.333,5.538-22.118,1.886c-20.086-9.422-22.509-25.842-5.824-39.789
			c33.414-27.931,84.877-15.331,98.906,25.776c15.363,45.017,5.755,86.863-22.762,124.333
			C341.89,352.674,333.316,359.526,318.54,356.076z"/>
		<path fill="#FFFFFF" d="M166.844,241.088c12.111,0,21.893-0.878,31.459,0.183c19.719,2.187,33.65-4.957,42.753-22.631
			c1.513-2.938,5.159-6.605,7.824-6.608c2.654-0.004,6.308,3.671,7.808,6.609c9.078,17.783,22.872,24.87,42.692,22.654
			c9.569-1.07,19.356-0.185,29.044-0.185c0.106,1.177,0.213,2.354,0.319,3.531c-5.4,0.987-11.163,1.091-16.126,3.137
			c-11.556,4.764-23.223,9.663-33.778,16.224c-3.622,2.251-5.237,9.498-5.724,14.655c-1.006,10.64-0.343,21.425-0.911,32.121
			c-0.646,12.163-5.979,21.102-20.822,22.804c3.089-4.432,6.511-8.678,9.14-13.368c1.55-2.766,2.785-6.404,2.266-9.312
			c-0.227-1.273-5.232-2.485-8.002-2.354c-6.76,0.318-13.482,1.437-20.22,2.233c3.083,5.914,6.217,11.801,9.216,17.757
			c0.843,1.673,1.288,3.547,2.015,5.612c-13.559-2.327-19.281-8.75-20.222-23.376c-0.662-10.289-0.754-20.638-0.578-30.951
			c0.169-9.863-3.61-16.795-12.913-20.519C197.996,253.665,183.928,247.971,166.844,241.088z"/>
		<path fill="#FFFFFF" d="M346.712,268.675c-2.785,7.5-4.543,15.618-8.594,22.357c-6.216,10.341-13.202,19.526-6.703,32.726
			c1.392,2.827-1.993,8.67-4.259,12.48c-3.389,5.701-7.737,10.832-12.019,16.672c-9.215-5.536-11.33-13.556-11.643-22.41
			C302.754,309.532,323.953,276.249,346.712,268.675z"/>
		<path fill="#FFFFFF" d="M154.776,267.43c30.292,15.641,48.039,60.539,31.062,83.547c-6.271-7.309-12.411-14.188-18.151-21.386
			c-1.179-1.479-1.843-4.631-1.077-6.196c5.824-11.9,0.004-21.046-5.828-30.839c-4.312-7.24-6.813-15.56-10.121-23.398
			C152.033,268.581,153.405,268.005,154.776,267.43z"/>
		<path fill="#FFFFFF" d="M200.528,268.073c-14.322,1.449-20.823-8.218-29.369-16.519
			C196.651,252.976,198.945,254.227,200.528,268.073z"/>
		<path fill="#FFFFFF" d="M297.43,266.956c1.28-12.669,3.345-13.805,29.406-13.183c-8.871,5.653-17.742,11.305-26.613,16.958
			C299.292,269.472,298.361,268.214,297.43,266.956z"/>
		<path fill="#FFFFFF" d="M210.006,275.309c2.72,0.496,6.056,1.104,9.841,1.794c0,12.204,0,24.082,0,38.226
			C216.277,300.814,213.264,288.56,210.006,275.309z"/>
		<path fill="#FFFFFF" d="M277.884,315.315c0-14.209,0-25.991,0-38.167c3.775-0.709,7.114-1.336,9.93-1.865
			C284.653,288.026,281.554,300.52,277.884,315.315z"/>
	</g>
</g>
</svg>
