<?xml version="1.0" encoding="utf-8"?>
<!-- Generator: Adobe Illustrator 17.0.0, SVG Export Plug-In . SVG Version: 6.00 Build 0)  -->
<!DOCTYPE svg PUBLIC "-//W3C//DTD SVG 1.1//EN" "http://www.w3.org/Graphics/SVG/1.1/DTD/svg11.dtd">
<svg version="1.1" id="Layer_1" xmlns="http://www.w3.org/2000/svg" xmlns:xlink="http://www.w3.org/1999/xlink" x="0px" y="0px"
	 width="371px" height="365px" viewBox="0 0 371 365" enable-background="new 0 0 371 365" xml:space="preserve">
<g>
	<g>
		<path d="M315.453,214.078c-1.699,6.478-3.06,13.067-5.151,19.415c-16.094,48.845-49.218,78.483-99.909,88.207
			c-1.495,0.287-2.879,1.155-4.315,1.753c-10.417,0-20.833,0-31.25,0c-6.478-1.699-13.067-3.06-19.415-5.151
			c-48.845-16.094-78.483-49.218-88.207-99.909c-0.287-1.495-1.155-2.879-1.753-4.315c0-10.417,0-20.833,0-31.25
			c1.699-6.478,3.06-13.067,5.151-19.415c16.094-48.845,49.218-78.483,99.909-88.207c1.495-0.287,2.879-1.155,4.315-1.753
			c10.417,0,20.833,0,31.25,0c6.478,1.699,13.067,3.06,19.415,5.151c48.845,16.094,78.483,49.218,88.207,99.909
			c0.287,1.495,1.155,2.879,1.753,4.315C315.453,193.245,315.453,203.661,315.453,214.078z M311.361,198.699
			c0.175-66.176-53.848-120.639-120.174-121.153c-66.475-0.515-121.465,54.032-121.641,120.662
			c-0.175,66.176,53.849,120.64,120.174,121.153C256.195,319.875,311.184,265.329,311.361,198.699z"/>
		<path d="M265.422,181.12c-5.22,4.438-10.24,9.054-15.639,13.173c-3.552,2.709-7.488,6.297-11.537,6.711
			c-11.774,1.203-13.917,9.832-16.07,18.58c-1.314,5.34-2.084,10.873-2.496,16.364c-1.071,14.278-10.069,22.176-22.138,26.992
			c-11.841,4.725-21.27-1.708-28.499-9.776c-4.185-4.67-5.725-11.935-7.758-18.257c-3.037-9.445-5.39-19.107-8.216-28.623
			c-0.414-1.393-1.831-3.562-2.785-3.562c-15.999-0.007-23.043-14.792-35.141-21.107c-3.925,5.714-2.793,9.371,3.25,13.35
			c15.906,10.472,24.772,26.391,30.337,44.05c1.584,5.024,1.366,11.109,0.322,16.381c-3.926,19.822-24.373,26.917-38.172,12.095
			c-9.47-10.172-16.873-23.018-22.496-35.853c-9.21-21.024-10.568-43.574-5.049-65.947c4.988-20.22,14.996-37.3,37.146-42.121
			c22.455-4.888,43.332-1.495,59.887,16.464c9.226,10.008,10.887,9.956,20.177,0.015c18.152-19.423,41.017-22.595,64.551-15.041
			c23.164,7.436,31.533,28.099,34.332,50.263c3.755,29.729-2.719,57.515-20.095,82.36c-1.115,1.595-2.229,3.208-3.505,4.671
			c-10.488,12.033-21.631,15.819-31.437,10.74c-10.566-5.473-16.551-20.292-12.284-34.047c5.485-17.681,14.497-33.556,30.403-44.029
			C268.555,190.986,269.69,187.331,265.422,181.12z M135.436,268.967c-1.393-1.927-1.97-3.134-2.895-3.945
			c-23.259-20.418-26.96-47.177-24.059-75.753c2.37-23.345,19.918-32.784,39.312-21.751c13.491,7.674,30.479,0.002,33.385-15.263
			c0.366-1.92-0.217-4.528-1.333-6.147c-17.64-25.601-65.949-28.286-82.92-1.707c-10.098,15.814-13.132,33.038-12.061,51.26
			c1.491,25.368,9.152,48.448,26.804,67.368C117.692,269.484,124.92,273.331,135.436,268.967z M247.55,269.923
			c12.111,2.828,19.139-2.789,24.485-9.812c23.375-30.713,31.251-65.013,18.658-101.912c-11.499-33.694-53.682-44.022-81.071-21.128
			c-13.677,11.432-11.691,24.891,4.774,32.614c6.381,2.993,11.841,2.374,18.129-1.546c17.884-11.149,33.141-4.812,38.853,15.564
			c1.038,3.704,1.143,7.689,1.5,11.561C275.453,223.231,267.366,247.818,247.55,269.923z M123.208,175.671
			c14.004,5.642,25.534,10.309,37.082,14.932c7.625,3.053,10.723,8.734,10.584,16.819c-0.145,8.453-0.07,16.936,0.473,25.369
			c0.772,11.989,5.462,17.254,16.576,19.161c-0.596-1.693-0.961-3.229-1.652-4.6c-2.458-4.882-5.027-9.708-7.554-14.555
			c5.523-0.653,11.033-1.569,16.574-1.83c2.271-0.107,6.373,0.886,6.559,1.93c0.425,2.383-0.587,5.366-1.858,7.633
			c-2.155,3.844-4.96,7.324-7.491,10.957c12.167-1.396,16.538-8.722,17.068-18.692c0.466-8.768-0.078-17.608,0.747-26.329
			c0.4-4.228,1.723-10.167,4.692-12.012c8.652-5.378,18.215-9.393,27.687-13.298c4.068-1.677,8.792-1.763,13.218-2.571
			c-0.087-0.965-0.174-1.93-0.262-2.894c-7.941,0-15.964-0.726-23.807,0.151c-16.246,1.816-27.553-3.993-34.994-18.569
			c-1.229-2.408-4.224-5.42-6.4-5.417c-2.184,0.003-5.172,3.008-6.413,5.417c-7.462,14.487-18.881,20.342-35.044,18.55
			C141.153,174.951,133.136,175.671,123.208,175.671z M270.641,198.283c-18.655,6.208-36.031,33.489-35.424,50.677
			c0.256,7.257,1.99,13.831,9.543,18.369c3.51-4.787,7.073-8.993,9.851-13.666c1.857-3.123,4.632-7.912,3.491-10.23
			c-5.327-10.82,0.399-18.349,5.494-26.825C266.917,211.085,268.358,204.431,270.641,198.283z M113.317,197.262
			c-1.124,0.472-2.249,0.944-3.373,1.416c2.711,6.425,4.761,13.244,8.296,19.179c4.781,8.027,9.552,15.524,4.777,25.278
			c-0.628,1.283-0.083,3.867,0.883,5.079c4.705,5.9,9.737,11.538,14.877,17.53C152.693,246.885,138.146,210.083,113.317,197.262z
			 M150.818,197.789c-1.298-11.35-3.178-12.375-24.073-13.54C133.75,191.053,139.079,198.977,150.818,197.789z M230.246,196.873
			c0.763,1.031,1.526,2.063,2.289,3.094c7.271-4.633,14.543-9.267,21.814-13.9C232.988,185.558,231.295,186.489,230.246,196.873z
			 M158.587,203.72c2.671,10.861,5.141,20.906,8.066,32.804c0-11.594,0-21.33,0-31.333
			C163.55,204.625,160.816,204.127,158.587,203.72z M214.225,236.513c3.008-12.127,5.548-22.368,8.139-32.813
			c-2.308,0.433-5.045,0.947-8.139,1.528C214.225,215.208,214.225,224.866,214.225,236.513z"/>
	</g>
</g>
</svg>
