<?xml version="1.0" encoding="utf-8"?>
<!-- Generator: Adobe Illustrator 17.0.0, SVG Export Plug-In . SVG Version: 6.00 Build 0)  -->
<!DOCTYPE svg PUBLIC "-//W3C//DTD SVG 1.1//EN" "http://www.w3.org/Graphics/SVG/1.1/DTD/svg11.dtd">
<svg version="1.1" id="Layer_1" xmlns="http://www.w3.org/2000/svg" xmlns:xlink="http://www.w3.org/1999/xlink" x="0px" y="0px"
	 width="369px" height="348px" viewBox="0 0 369 348" enable-background="new 0 0 369 348" xml:space="preserve">
<g>
	<g>
		<g>
			<path d="M314.445,205.07c-1.699,6.478-3.06,13.067-5.151,19.415c-16.094,48.845-49.218,78.483-99.909,88.207
				c-1.495,0.287-2.879,1.155-4.315,1.753c-10.417,0-20.833,0-31.25,0c-6.478-1.699-13.067-3.06-19.415-5.151
				c-48.845-16.094-78.483-49.218-88.207-99.909c-0.287-1.495-1.155-2.879-1.753-4.315c0-10.417,0-20.833,0-31.25
				c1.699-6.478,3.06-13.067,5.151-19.415c16.094-48.845,49.218-78.483,99.909-88.207c1.495-0.287,2.879-1.155,4.315-1.753
				c10.417,0,20.833,0,31.25,0c6.478,1.699,13.067,3.06,19.415,5.151c48.845,16.094,78.483,49.218,88.207,99.909
				c0.287,1.495,1.155,2.879,1.753,4.315C314.445,184.237,314.445,194.653,314.445,205.07z M189.502,68.537
				C123.291,68.495,68.92,122.596,68.537,188.9c-0.383,66.505,54.25,121.41,120.851,121.453
				c66.21,0.042,120.582-54.06,120.964-120.363C310.736,123.485,256.102,68.58,189.502,68.537z"/>
			<path d="M248.139,225.982c1.785-16.106-2.992-24.446-18.102-32.173c-5.021,4.154-10.113,7.65-9.453,16.165
				c0.466,6.01-4.846,8.422-10.884,8.385c-13.562-0.083-27.172,0.702-40.659-0.284c-3.853-0.281-8.352-4.773-10.763-8.495
				c-3.176-4.902-4.583-10.95-6.751-16.505c-17.461,6.92-23.901,17.889-20.824,32.92c15.221,2.832,26.795,10.9,32.828,25.67
				c5.828,14.268,3.477,18.667-11.736,22.186c1.158,3.52,2.307,7.012,3.422,10.403c-11.303,7.306-23.824,6.134-36.287-3.113
				c-12.293-9.122-18.136-24.765-14.575-37.718c1.156-4.207,1.605-8.767,1.48-13.14c-0.548-19.077,6.881-34.01,22.493-44.903
				c2.294-1.601,4.703-3.036,7.059-4.549c-0.339-0.828-0.679-1.656-1.018-2.484c-6.094,2.554-12.291,4.893-18.255,7.722
				c-6.328,3.001-12.436,6.468-18.64,9.731c-0.893-0.881-1.786-1.762-2.68-2.643c6.281-7.237,12.017-15.06,18.996-21.546
				c7.038-6.54,15.309-11.753,24.198-18.416c-15.555-9.887-28.979-20.217-36.029-37.255c14.406,6.487,28.813,12.973,43.219,19.46
				c-6.037-14.956-13.052-28.569-9.469-47.334c10.675,12.692,20.073,23.865,29.793,35.421c14.871-9.042,29.621-9.883,44.829-2.018
				c1.514,0.783,5.384-0.841,6.859-2.503c6.471-7.289,12.445-15.018,18.64-22.554c1.934-2.352,3.997-4.598,7.299-8.379
				c3.724,18.685-2.938,32.402-9.69,47.728c14.267-6.538,28.533-13.075,42.725-19.579c0.437,7.405,0.437,7.405-34.328,37.41
				c14.59,12.71,33.041,21.667,42.312,42.964c-14.521-6.857-26.978-12.739-40.291-19.025c8.677,10.15,16.533,18.743,23.605,27.94
				c2.422,3.149,3.533,7.717,4.108,11.796c1.564,11.094,3.231,22.255,3.545,33.426c0.409,14.551-7.017,25.353-19.189,32.842
				c-10.301,6.338-20.995,7.811-32.788,1.59c1.261-3.984,2.378-7.515,3.496-11.048c-15.202-4.302-17.569-9.993-10.478-24.839
				C222.548,235.862,233.588,228.703,248.139,225.982z M191.77,133.509c-21.519,0.19-36.96,10.377-51.274,22.248
				c-6.775,5.619-6.284,15.593,0.017,22.775c5.553,6.33,11.613,12.243,17.769,17.998c1.633,1.527,4.488,2.612,6.706,2.491
				c7.63-0.418,10.651,3.192,12.872,10.225c0.888,2.811,7.237,5.441,11.051,5.372c4.278-0.077,11.446-2.52,12.185-5.305
				c2.113-7.969,5.802-10.971,13.712-10.025c1.608,0.192,3.83-0.809,5.052-1.997c6.508-6.331,13.152-12.585,19.046-19.467
				c5.868-6.852,6.086-16.657-0.384-22.039C224.479,144.103,209.256,134.22,191.77,133.509z M226.687,281.998
				c14.342,5.761,24.216,1.417,32.769-6.266c8.29-7.447,14.33-17.159,11.031-28.391c-1.745-5.941-7.425-12.796-13.041-15.144
				c-17.267-7.218-40.419,11.1-39.412,30.411c9.394-7.536,18.779-14.782,32.179-10.325
				C242.223,262.376,234.902,271.623,226.687,281.998z M161.397,262.913c-2.367-16.746-11.89-27.791-26.657-31.494
				c-17.135-4.297-30.71,8.869-26.861,26.053c2.976,13.289,15.301,25.36,28.691,27.172c4.322,0.585,8.904-0.753,16.304-1.512
				c-9.2-11.66-16.496-20.908-24.411-30.939C142.135,247.44,151.543,255.457,161.397,262.913z M267.474,231.675
				c2.453-18.926-6.676-36.472-22.306-44.742c-5.347-2.829-8.783-2.432-10.816,3.988c13.932,7.655,19.896,19.434,18.952,34.716
				C258.112,227.686,262.483,229.548,267.474,231.675z M111.548,231.427c5.127-2.211,9.463-4.08,13.981-6.028
				c-2.08-16.657,6.619-27.287,19.087-37.221c-3.584-1.572-7.124-2.549-9.749-1.413C118.27,193.95,108.772,212.071,111.548,231.427z
				 M155.286,139.375c22.928-13.879,45.724-13.145,68.68-0.022C204.333,114.422,174.272,114.305,155.286,139.375z M140.382,100.023
				c-1.136,0.509-2.272,1.017-3.408,1.526c4.502,10.504,9.003,21.009,13.876,32.378c4.743-3.806,7.422-5.955,10.495-8.421
				C154.153,116.763,147.268,108.393,140.382,100.023z M226.733,132.848c7.915-9.875,12.787-20.009,11.409-32.507
				c-6.836,8.398-13.673,16.796-20.622,25.331C220.74,128.18,223.268,130.149,226.733,132.848z M265.817,129.242
				c-0.48-0.694-0.96-1.388-1.441-2.083c-11.659,4.743-23.318,9.486-34.977,14.228c-0.051,1.128-0.103,2.256-0.154,3.384
				c4.138,0.862,9.468,3.783,12.193,2.205C250.087,141.968,257.764,135.28,265.817,129.242z M112.692,126.366
				c15.245,19.773,28.382,25.037,36.818,15.048C137.776,136.619,126.227,131.899,112.692,126.366z M249.043,163.955
				c-3.224,10.989,3.114,16.33,23.812,20.027C264.024,176.555,256.723,170.414,249.043,163.955z M130.488,162.927
				c-8.237,7.229-14.873,13.052-21.509,18.876c0.54,0.674,1.08,1.349,1.62,2.023c7.206-3.242,14.411-6.485,21.911-9.859
				C131.901,170.637,131.395,167.879,130.488,162.927z M139.8,254.394c-0.545,1.026-1.089,2.053-1.634,3.079
				c5.942,4.103,8.012,15.488,21.52,8.978C152.137,261.874,145.969,258.134,139.8,254.394z M240.217,257.539
				c-0.603-1.049-1.206-2.097-1.809-3.146c-5.999,3.818-11.999,7.636-19.345,12.311C232.549,272.58,234.466,261.732,240.217,257.539
				z M175.067,209.062c-3.263-2.626-5.289-5.52-7.259-5.482c-1.936,0.037-5.287,3.021-5.324,4.768
				c-0.04,1.932,2.787,5.244,4.718,5.523C169.123,214.149,171.48,211.408,175.067,209.062z M219.136,208.096
				c-3.76-2.281-6.161-4.892-7.99-4.538c-2.028,0.392-5.013,3.614-4.865,5.377c0.159,1.901,3.395,4.813,5.414,4.92
				C213.588,213.955,215.644,210.965,219.136,208.096z"/>
		</g>
	</g>
</g>
</svg>
