<?xml version="1.0" encoding="utf-8"?>
<!-- Generator: Adobe Illustrator 17.0.0, SVG Export Plug-In . SVG Version: 6.00 Build 0)  -->
<!DOCTYPE svg PUBLIC "-//W3C//DTD SVG 1.1//EN" "http://www.w3.org/Graphics/SVG/1.1/DTD/svg11.dtd">
<svg version="1.1" id="scorpio_x5F_face" xmlns="http://www.w3.org/2000/svg" xmlns:xlink="http://www.w3.org/1999/xlink" x="0px"
	 y="0px" width="1000px" height="1000px" viewBox="0 0 1000 1000" enable-background="new 0 0 1000 1000" xml:space="preserve">
<g id="circles">
	<g>
		<ellipse fill="none" stroke="#000000" stroke-miterlimit="10" cx="178.287" cy="304.184" rx="7.471" ry="8.046"/>
		<ellipse fill="none" stroke="#000000" stroke-miterlimit="10" cx="227" cy="285.793" rx="7.471" ry="8.046"/>
		<ellipse fill="none" stroke="#000000" stroke-miterlimit="10" cx="358.747" cy="285.793" rx="7.471" ry="8.046"/>
		<ellipse fill="none" stroke="#000000" stroke-miterlimit="10" cx="211.621" cy="309.931" rx="7.471" ry="8.046"/>
		<ellipse fill="none" stroke="#000000" stroke-miterlimit="10" cx="358.747" cy="309.931" rx="7.471" ry="8.046"/>
		<ellipse fill="none" stroke="#000000" stroke-miterlimit="10" cx="172.54" cy="376.598" rx="7.471" ry="8.046"/>
		<ellipse fill="none" stroke="#000000" stroke-miterlimit="10" cx="231.667" cy="345" rx="7.471" ry="8.046"/>
		<ellipse fill="none" stroke="#000000" stroke-miterlimit="10" cx="267" cy="336.954" rx="7.471" ry="8.046"/>
		<ellipse fill="none" stroke="#000000" stroke-miterlimit="10" cx="301.276" cy="336.954" rx="7.471" ry="8.046"/>
		<ellipse fill="none" stroke="#000000" stroke-miterlimit="10" cx="332.31" cy="342.115" rx="7.471" ry="8.046"/>
		<ellipse fill="none" stroke="#000000" stroke-miterlimit="10" cx="358.747" cy="381.195" rx="7.471" ry="8.046"/>
		<ellipse fill="none" stroke="#000000" stroke-miterlimit="10" cx="332.31" cy="403.034" rx="7.471" ry="8.046"/>
		<ellipse fill="none" stroke="#000000" stroke-miterlimit="10" cx="246.609" cy="403.034" rx="7.471" ry="8.046"/>
		<ellipse fill="none" stroke="#000000" stroke-miterlimit="10" cx="363" cy="444.23" rx="7.471" ry="8.046"/>
		<ellipse fill="none" stroke="#000000" stroke-miterlimit="10" cx="343.805" cy="508.046" rx="7.471" ry="8.046"/>
		<ellipse fill="none" stroke="#000000" stroke-miterlimit="10" cx="320.816" cy="529.471" rx="7.471" ry="8.046"/>
		<ellipse fill="none" stroke="#000000" stroke-miterlimit="10" cx="325.414" cy="563.954" rx="7.471" ry="8.046"/>
		<ellipse fill="none" stroke="#000000" stroke-miterlimit="10" cx="363" cy="550.333" rx="7.471" ry="8.046"/>
		<ellipse fill="none" stroke="#000000" stroke-miterlimit="10" cx="380.586" cy="584.644" rx="7.471" ry="8.046"/>
		<ellipse fill="none" stroke="#000000" stroke-miterlimit="10" cx="373.69" cy="621.425" rx="7.471" ry="8.046"/>
		<ellipse fill="none" stroke="#000000" stroke-miterlimit="10" cx="317.368" cy="621.425" rx="7.471" ry="8.046"/>
		<ellipse fill="none" stroke="#000000" stroke-miterlimit="10" cx="246.609" cy="661" rx="7.471" ry="8.046"/>
		<ellipse fill="none" stroke="#000000" stroke-miterlimit="10" cx="274.471" cy="672.333" rx="7.471" ry="8.046"/>
		<ellipse fill="none" stroke="#000000" stroke-miterlimit="10" cx="347.253" cy="656.241" rx="7.471" ry="8.046"/>
		<ellipse fill="none" stroke="#000000" stroke-miterlimit="10" cx="388.057" cy="669.046" rx="7.471" ry="8.046"/>
		<ellipse fill="none" stroke="#000000" stroke-miterlimit="10" cx="380.586" cy="709.931" rx="7.471" ry="8.046"/>
		<ellipse fill="none" stroke="#000000" stroke-miterlimit="10" cx="336.333" cy="701.885" rx="7.471" ry="8.046"/>
		<ellipse fill="none" stroke="#000000" stroke-miterlimit="10" cx="293.805" cy="680.379" rx="7.471" ry="8.046"/>
		<ellipse fill="none" stroke="#000000" stroke-miterlimit="10" cx="415.069" cy="557.057" rx="7.471" ry="8.046"/>
	</g>
</g>
<g id="face">
	<g>
		<polygon points="380.727,710.457 341.314,704.646 307.904,690.821 307.842,690.766 293.475,678.122 294.135,677.372 
			308.44,689.96 341.64,703.698 380.446,709.404 401.942,692.434 404.167,661.289 388.697,667.919 366.582,664.407 349.501,656.437 
			326.684,662.141 303.673,666.743 277.138,673.649 251.583,673.649 244.224,662.61 279.213,645.116 317.222,620.925 
			373.329,620.925 378.942,604.088 380.101,584.392 411.88,558.968 398.975,564.499 380.386,556.366 364.472,549.546 
			340.515,557.532 325.139,564.632 319.161,549.09 320.33,529.227 334.289,517.593 342.228,509.651 352.534,483.312 
			363.994,445.489 363.994,368.946 359.167,381.497 332.49,403.535 250.56,403.514 191.939,386.272 171.498,376.66 199.861,358.933 
			233.348,342.777 268.517,334.718 303.691,334.732 332.427,341.628 358.247,352.847 358.247,310.431 211.621,310.431 
			176.349,304.357 228.862,285.293 359.247,285.293 359.247,304.184 358.247,304.184 358.247,286.293 228.95,286.293 
			180.227,304.011 211.706,309.438 359.247,309.431 359.247,354.372 332.111,342.573 303.516,335.718 268.574,335.718 
			233.626,343.739 200.344,359.807 173.583,376.536 192.293,385.34 250.773,402.535 332.131,402.535 358.328,380.894 
			364.994,363.56 364.973,445.708 353.479,483.639 343.083,510.21 334.963,518.33 321.302,529.717 320.172,548.934 325.688,563.276 
			340.147,556.604 364.517,548.478 380.783,555.448 398.979,563.409 418.257,555.147 381.073,584.895 379.911,604.342 
			374.05,621.925 317.513,621.925 279.706,645.985 245.684,662.999 252.118,672.649 277.074,672.649 303.448,665.77 
			326.465,661.165 349.603,655.38 366.94,663.472 388.568,666.886 405.281,659.723 402.908,692.945 		"/>
	</g>
</g>
</svg>
